<svg width="640" height="588" viewBox="0 0 640 588" fill="none" xmlns="http://www.w3.org/2000/svg">
<rect width="640" height="588" fill="#E5E5E5"/>
<g id="Open 1" clip-path="url(#clip0)">
<g id="Back">
<path id="Vector" d="M1.27999 276.96C-5.29001 226.64 13.61 165.51 54.82 138.64C77.82 123.64 97.97 125.7 107.46 106.52C120.3 80.59 92.14 59.32 100.33 36.92C114.5 -1.85999 227.19 -15.51 323.41 22.64C383.41 46.43 377.79 66.89 437.63 91.35C543.01 134.43 608.73 90.72 633.95 127.94C663.1 170.94 575.61 229.79 587.55 342.99C595.12 414.88 635.26 437.14 618.78 475.06C613.84 486.42 596.93 515.13 443.93 536.63C356.35 548.94 202.55 570.55 184.26 523.24C172.78 493.56 224.26 461.65 210.13 432.24C195.43 401.62 135.53 427.52 74.5 389.41C39.08 367.3 7.72999 326.46 1.27999 276.96Z" fill="url(#paint0_linear)"/>
</g>
<g id="Man">
<path id="Vector_2" d="M409.93 212.42H325.73C323.886 212.425 322.064 212.01 320.404 211.206C318.744 210.402 317.289 209.23 316.15 207.78C314.995 206.313 314.188 204.603 313.79 202.779C313.391 200.955 313.412 199.065 313.85 197.25C321.62 164.731 321.62 130.839 313.85 98.32C313.41 96.5053 313.389 94.6144 313.787 92.7901C314.186 90.9659 314.994 89.2561 316.15 87.79C317.288 86.338 318.743 85.1651 320.403 84.361C322.063 83.5568 323.885 83.1426 325.73 83.15H409.93C412.839 83.1549 415.652 84.1933 417.866 86.0799C420.081 87.9665 421.553 90.5786 422.02 93.45C427.56 129.458 427.56 166.102 422.02 202.11C421.551 204.981 420.079 207.594 417.865 209.482C415.651 211.369 412.84 212.411 409.93 212.42Z" fill="#E6E6E6"/>
<path id="Vector_3" d="M325.73 89.48C324.845 89.4801 323.971 89.6807 323.174 90.067C322.377 90.4532 321.678 91.0149 321.13 91.71C320.568 92.4251 320.177 93.2585 319.984 94.1472C319.792 95.0359 319.804 95.9567 320.02 96.84C328.01 130.33 328.01 165.23 320.02 198.72C319.801 199.606 319.787 200.531 319.98 201.423C320.172 202.316 320.565 203.153 321.13 203.87C321.677 204.567 322.375 205.13 323.173 205.516C323.97 205.902 324.844 206.102 325.73 206.1H409.93C411.327 206.1 412.678 205.605 413.744 204.702C414.809 203.799 415.52 202.548 415.75 201.17C421.2 165.799 421.2 129.801 415.75 94.43C415.52 93.0523 414.809 91.8008 413.744 90.8981C412.678 89.9953 411.327 89.4999 409.93 89.5L325.73 89.48Z" fill="white"/>
<path id="Vector_4" d="M391.59 119.96H347.38C345.699 119.957 344.088 119.289 342.9 118.1C341.711 116.912 341.043 115.301 341.04 113.62V111.15C341.043 109.469 341.711 107.858 342.9 106.67C344.088 105.481 345.699 104.813 347.38 104.81H391.59C393.271 104.813 394.882 105.481 396.07 106.67C397.259 107.858 397.927 109.469 397.93 111.15V113.62C397.927 115.301 397.259 116.912 396.07 118.1C394.882 119.289 393.271 119.957 391.59 119.96Z" fill="#E6E6E6"/>
<path id="Vector_5" d="M391.59 151.26H347.38C345.699 151.257 344.088 150.589 342.9 149.4C341.711 148.212 341.043 146.601 341.04 144.92V142.44C341.045 140.761 341.715 139.153 342.903 137.966C344.092 136.78 345.701 136.113 347.38 136.11H391.59C393.269 136.113 394.878 136.78 396.067 137.966C397.255 139.153 397.925 140.761 397.93 142.44V144.92C397.927 146.601 397.259 148.212 396.07 149.4C394.882 150.589 393.271 151.257 391.59 151.26Z" fill="#E6E6E6"/>
<path id="Vector_6" d="M391.59 182.56H347.38C345.699 182.557 344.088 181.889 342.9 180.7C341.711 179.512 341.043 177.901 341.04 176.22V173.74C341.043 172.059 341.711 170.448 342.9 169.26C344.088 168.071 345.699 167.403 347.38 167.4H391.59C393.271 167.403 394.882 168.071 396.07 169.26C397.259 170.448 397.927 172.059 397.93 173.74V176.22C397.927 177.901 397.259 179.512 396.07 180.7C394.882 181.889 393.271 182.557 391.59 182.56Z" fill="#E6E6E6"/>
<path id="Vector_7" d="M568.43 292.71H484.19C482.346 292.713 480.526 292.296 478.868 291.49C477.21 290.685 475.757 289.511 474.62 288.06C473.46 286.596 472.649 284.886 472.251 283.061C471.852 281.236 471.876 279.344 472.32 277.53C480.08 245.01 480.08 211.12 472.32 178.6C471.877 176.786 471.853 174.894 472.252 173.069C472.65 171.244 473.46 169.534 474.62 168.07C475.757 166.62 477.21 165.448 478.869 164.644C480.527 163.84 482.347 163.425 484.19 163.43H568.43C571.339 163.439 574.151 164.481 576.365 166.369C578.579 168.256 580.051 170.868 580.52 173.74C586.06 209.748 586.06 246.392 580.52 282.4C580.051 285.272 578.579 287.884 576.365 289.771C574.151 291.659 571.339 292.701 568.43 292.71Z" fill="#E6E6E6"/>
<path id="Vector_8" d="M484.19 169.77C483.305 169.77 482.431 169.971 481.634 170.357C480.837 170.743 480.138 171.305 479.59 172C479.028 172.715 478.637 173.548 478.444 174.437C478.252 175.326 478.264 176.247 478.48 177.13C486.475 210.619 486.475 245.521 478.48 279.01C478.264 279.893 478.252 280.814 478.444 281.703C478.637 282.592 479.028 283.425 479.59 284.14C480.138 284.835 480.837 285.397 481.634 285.783C482.431 286.169 483.305 286.37 484.19 286.37H568.43C569.827 286.37 571.178 285.875 572.244 284.972C573.31 284.069 574.02 282.818 574.25 281.44C579.7 246.069 579.7 210.071 574.25 174.7C574.02 173.322 573.31 172.071 572.244 171.168C571.178 170.265 569.827 169.77 568.43 169.77H484.19Z" fill="white"/>
<path id="Vector_9" d="M400.46 384.08H316.22C314.294 384.09 312.392 383.659 310.659 382.82C308.925 381.981 307.407 380.756 306.22 379.24C305.009 377.71 304.163 375.924 303.747 374.018C303.331 372.111 303.356 370.135 303.82 368.24C311.565 335.803 311.565 301.997 303.82 269.56C303.356 267.665 303.331 265.689 303.747 263.782C304.163 261.876 305.009 260.09 306.22 258.56C307.407 257.044 308.925 255.819 310.659 254.98C312.392 254.141 314.294 253.71 316.22 253.72H400.46C403.495 253.726 406.429 254.81 408.739 256.779C411.049 258.748 412.584 261.474 413.07 264.47C418.62 300.531 418.62 337.229 413.07 373.29C412.592 376.293 411.061 379.028 408.751 381.006C406.44 382.983 403.501 384.073 400.46 384.08Z" fill="#F2F2F2"/>
<path id="Vector_10" d="M550.05 216.1H505.84C504.161 216.095 502.553 215.425 501.366 214.237C500.18 213.048 499.513 211.439 499.51 209.76V207.28C499.513 205.601 500.18 203.991 501.366 202.803C502.553 201.615 504.161 200.945 505.84 200.94H550.05C551.731 200.943 553.342 201.611 554.53 202.8C555.719 203.988 556.387 205.599 556.39 207.28V209.76C556.387 211.441 555.719 213.052 554.53 214.24C553.342 215.429 551.731 216.097 550.05 216.1Z" fill="#E6E6E6"/>
<path id="Vector_11" d="M550.05 247.39H505.84C504.16 247.387 502.55 246.718 501.363 245.53C500.177 244.341 499.51 242.73 499.51 241.05V238.58C499.51 236.9 500.177 235.289 501.363 234.1C502.55 232.912 504.16 232.243 505.84 232.24H550.05C551.731 232.243 553.342 232.911 554.53 234.1C555.719 235.288 556.387 236.899 556.39 238.58V241.05C556.387 242.731 555.719 244.342 554.53 245.53C553.342 246.719 551.731 247.387 550.05 247.39Z" fill="#E6E6E6"/>
<path id="Vector_12" d="M358.58 342.78C372.001 342.78 382.88 331.901 382.88 318.48C382.88 305.059 372.001 294.18 358.58 294.18C345.159 294.18 334.28 305.059 334.28 318.48C334.28 331.901 345.159 342.78 358.58 342.78Z" fill="white"/>
<path id="Vector_13" d="M370.2 315.32H361.75V306.87C361.75 306.029 361.416 305.223 360.822 304.628C360.227 304.034 359.421 303.7 358.58 303.7C357.739 303.7 356.933 304.034 356.338 304.628C355.744 305.223 355.41 306.029 355.41 306.87V315.33H346.93C346.499 315.306 346.068 315.37 345.663 315.518C345.258 315.666 344.888 315.895 344.574 316.191C344.261 316.488 344.011 316.845 343.841 317.241C343.67 317.637 343.582 318.064 343.582 318.495C343.582 318.926 343.67 319.353 343.841 319.749C344.011 320.145 344.261 320.502 344.574 320.799C344.888 321.095 345.258 321.324 345.663 321.472C346.068 321.62 346.499 321.684 346.93 321.66H355.38V330.12C355.38 330.961 355.714 331.767 356.308 332.362C356.903 332.956 357.709 333.29 358.55 333.29C359.391 333.29 360.197 332.956 360.792 332.362C361.386 331.767 361.72 330.961 361.72 330.12V321.66H370.17C370.601 321.684 371.032 321.62 371.437 321.472C371.842 321.324 372.212 321.095 372.526 320.799C372.839 320.502 373.089 320.145 373.259 319.749C373.43 319.353 373.518 318.926 373.518 318.495C373.518 318.064 373.43 317.637 373.259 317.241C373.089 316.845 372.839 316.488 372.526 316.191C372.212 315.895 371.842 315.666 371.437 315.518C371.032 315.37 370.601 315.306 370.17 315.33L370.2 315.32Z" fill="#E6E6E6"/>
<path id="Vector_14" d="M389.21 95.05H344.85C343.589 95.05 342.38 94.5499 341.488 93.6594C340.595 92.7689 340.093 91.5607 340.09 90.3V81.87C340.09 80.6076 340.592 79.3969 341.484 78.5042C342.377 77.6115 343.588 77.11 344.85 77.11H389.21C390.466 77.1206 391.666 77.6267 392.55 78.5182C393.434 79.4098 393.93 80.6145 393.93 81.87V90.32C393.922 91.5703 393.423 92.7674 392.539 93.6524C391.656 94.5375 390.46 95.0395 389.21 95.05Z" fill="#CCCCCC"/>
<path id="Vector_15" d="M549.79 176.4H505.42C504.159 176.397 502.951 175.895 502.061 175.002C501.17 174.11 500.67 172.901 500.67 171.64V163.19C500.67 161.93 501.17 160.722 502.061 159.831C502.952 158.94 504.16 158.44 505.42 158.44H549.79C551.05 158.44 552.258 158.94 553.149 159.831C554.04 160.722 554.54 161.93 554.54 163.19V171.64C554.54 172.901 554.04 174.11 553.149 175.002C552.259 175.895 551.051 176.397 549.79 176.4Z" fill="#CCCCCC"/>
<path id="Vector_16" d="M165.03 574.73H177.98L182.03 524.77H165.03V574.73Z" fill="#FFB8B8"/>
<path id="Vector_17" d="M161.72 570.5H187.23C191.541 570.5 195.675 572.212 198.724 575.259C201.773 578.306 203.487 582.439 203.49 586.75V587.28H161.73L161.72 570.5Z" fill="#2F2E41"/>
<path id="Vector_18" d="M95.3 574.73H108.26L114.42 524.77H95.3V574.73Z" fill="#FFB8B8"/>
<path id="Vector_19" d="M92 570.5H117.51C121.82 570.5 125.953 572.212 129 575.26C132.048 578.307 133.76 582.44 133.76 586.75V587.28H92V570.5Z" fill="#2F2E41"/>
<path id="Vector_20" d="M97.6 558.95C96.2812 558.948 95.0109 558.452 94.04 557.56C93.5247 557.089 93.1083 556.52 92.8147 555.887C92.5211 555.253 92.3564 554.568 92.33 553.87L87.14 367.71L160.93 386.1L183.68 454.36C186.609 463.146 187.88 472.4 187.43 481.65L184.56 547.87C184.491 549.222 183.904 550.496 182.921 551.427C181.937 552.357 180.634 552.874 179.28 552.87H166.93C165.655 552.863 164.425 552.398 163.464 551.559C162.504 550.719 161.878 549.563 161.7 548.3L152.86 475.3C152.085 469.609 150.093 464.152 147.02 459.3L129.62 431.75C129.47 431.513 129.232 431.345 128.958 431.283C128.685 431.221 128.397 431.271 128.16 431.42C128.026 431.5 127.913 431.611 127.83 431.743C127.746 431.875 127.695 432.025 127.68 432.18L114 553.67C113.856 554.904 113.28 556.048 112.374 556.899C111.468 557.75 110.291 558.253 109.05 558.32L97.9 558.94L97.6 558.95Z" fill="#2F2E41"/>
<path id="Vector_21" d="M160.53 393.67C160.085 393.668 159.641 393.611 159.21 393.5L86.04 374.74C84.731 374.407 83.5997 373.585 82.8796 372.442C82.1594 371.3 81.9054 369.924 82.17 368.6L98.93 278.07C99.9792 272.838 102.281 267.939 105.639 263.792C108.997 259.645 113.311 256.374 118.21 254.26C122.985 252.146 128.207 251.241 133.415 251.625C138.623 252.008 143.656 253.669 148.07 256.46C149.07 257.09 150.13 257.79 151.14 258.53C155.205 261.53 158.521 265.43 160.826 269.925C163.132 274.42 164.365 279.388 164.43 284.44L165.76 388.32C165.769 389.014 165.641 389.703 165.384 390.348C165.127 390.993 164.745 391.581 164.26 392.078C163.775 392.575 163.197 392.971 162.558 393.244C161.92 393.518 161.234 393.662 160.54 393.67H160.53Z" fill="#6C63FF"/>
<path id="Vector_22" d="M93.57 394.74C92.7848 393.587 92.2346 392.29 91.9508 390.923C91.6671 389.557 91.6554 388.148 91.9163 386.778C92.1773 385.407 92.7058 384.101 93.4717 382.935C94.2376 381.768 95.2259 380.764 96.38 379.98C96.8985 379.628 97.4473 379.324 98.02 379.07L94.76 341.46L112.01 350.81L112.46 385.09C113.368 387.543 113.344 390.243 112.394 392.68C111.443 395.116 109.632 397.119 107.303 398.309C104.974 399.498 102.289 399.792 99.7582 399.135C97.227 398.477 95.0251 396.913 93.57 394.74Z" fill="#FFB8B8"/>
<path id="Vector_23" d="M99.73 374.09C99.2411 374.09 98.7541 374.029 98.28 373.91C97.2675 373.65 96.3438 373.122 95.6063 372.381C94.8689 371.64 94.3451 370.714 94.09 369.7L85.61 336.02C82.6532 324.254 84.0748 311.815 89.61 301.02L107.36 266.29C108.481 262.13 111.193 258.577 114.91 256.399C118.628 254.222 123.053 253.593 127.23 254.65C129.31 255.176 131.266 256.109 132.983 257.397C134.699 258.684 136.143 260.3 137.23 262.15C138.334 264.027 139.053 266.106 139.344 268.264C139.636 270.422 139.495 272.617 138.93 274.72L113.65 331.25L113.95 365.09C113.961 366.285 113.603 367.455 112.924 368.439C112.246 369.423 111.281 370.174 110.16 370.59L101.71 373.73C101.076 373.964 100.406 374.086 99.73 374.09Z" fill="#6C63FF"/>
<path id="Vector_24" opacity="0.2" d="M112.53 365.86L113.12 331.07L131.54 294.02L116.75 332.05L112.53 365.86Z" fill="black"/>
<path id="Vector_25" d="M220.39 587.87H72.49C72.3428 587.884 72.1943 587.868 72.0539 587.821C71.9135 587.775 71.7844 587.699 71.6749 587.6C71.5654 587.501 71.4779 587.38 71.418 587.244C71.3581 587.109 71.3271 586.963 71.3271 586.815C71.3271 586.667 71.3581 586.521 71.418 586.386C71.4779 586.25 71.5654 586.129 71.6749 586.03C71.7844 585.931 71.9135 585.855 72.0539 585.809C72.1943 585.762 72.3428 585.746 72.49 585.76H220.39C220.652 585.786 220.895 585.908 221.072 586.103C221.249 586.298 221.347 586.552 221.347 586.815C221.347 587.078 221.249 587.332 221.072 587.527C220.895 587.722 220.652 587.844 220.39 587.87Z" fill="#CCCCCC"/>
</g>
<g id="Head">
<path id="Vector_26" d="M148.61 247.14C162.942 247.14 174.56 235.522 174.56 221.19C174.56 206.858 162.942 195.24 148.61 195.24C134.278 195.24 122.66 206.858 122.66 221.19C122.66 235.522 134.278 247.14 148.61 247.14Z" fill="#FFB8B8"/>
<path id="Vector_27" d="M143.16 247.54C144.54 248.14 147.37 237.16 146.1 234.96C144.22 231.69 144.33 231.72 143.1 229.55C141.87 227.38 141.58 224.43 143.19 222.55C144.8 220.67 148.55 220.9 149.29 223.29C148.81 218.76 153.29 215.12 157.73 214.09C162.17 213.06 166.85 213.71 171.31 212.79C176.49 211.79 181.88 207.4 179.82 201.7C179.462 200.753 178.93 199.881 178.25 199.13C175.86 196.45 172.52 195.3 169.25 194.19C162.46 191.89 155.48 189.55 148.31 189.81C142.404 190.117 136.716 192.139 131.942 195.629C127.167 199.119 123.515 203.926 121.43 209.46C120.933 210.847 120.548 212.271 120.28 213.72C117.82 226.95 125.5 240 137.98 245.04L143.16 247.54Z" fill="#2F2E41"/>
</g>
<g id="Hand">
<path id="Vector_28" d="M279.63 453.16L201.84 420.87C200.131 420.162 198.605 419.074 197.38 417.687C196.155 416.301 195.262 414.653 194.77 412.87C194.262 411.072 194.171 409.182 194.503 407.343C194.836 405.504 195.584 403.766 196.69 402.26C216.353 375.212 229.37 343.914 234.69 310.9C234.976 309.055 235.679 307.299 236.747 305.767C237.814 304.235 239.218 302.967 240.85 302.06C242.459 301.156 244.252 300.631 246.094 300.525C247.937 300.419 249.779 300.736 251.48 301.45L329.27 333.77C331.952 334.893 334.148 336.932 335.467 339.524C336.786 342.115 337.141 345.091 336.47 347.92C327.778 383.302 313.719 417.145 294.78 448.27C293.247 450.752 290.881 452.606 288.105 453.502C285.329 454.398 282.325 454.277 279.63 453.16Z" fill="#E6E6E6"/>
<path id="Vector_29" d="M249 307.31C248.183 306.97 247.3 306.82 246.417 306.87C245.533 306.92 244.673 307.17 243.9 307.6C243.106 308.044 242.423 308.663 241.903 309.409C241.384 310.156 241.041 311.011 240.9 311.91C235.433 345.908 222.038 378.14 201.8 406C201.265 406.734 200.903 407.579 200.741 408.473C200.58 409.367 200.624 410.286 200.87 411.16C201.106 412.013 201.534 412.801 202.122 413.463C202.709 414.125 203.441 414.644 204.26 414.98L282.05 447.31C283.341 447.843 284.778 447.902 286.109 447.478C287.439 447.053 288.576 446.172 289.32 444.99C307.936 414.418 321.763 381.176 330.32 346.42C330.636 345.059 330.46 343.631 329.822 342.388C329.185 341.145 328.129 340.168 326.84 339.63L249 307.31Z" fill="white"/>
<path id="Vector_30" d="M290.43 379.26L249.6 362.26C248.049 361.614 246.818 360.38 246.177 358.827C245.536 357.275 245.537 355.532 246.18 353.98L247.18 351.69C247.828 350.139 249.064 348.908 250.618 348.266C252.172 347.625 253.917 347.627 255.47 348.27L296.29 365.27C297.841 365.916 299.072 367.15 299.713 368.703C300.354 370.255 300.353 371.998 299.71 373.55L298.71 375.84C298.064 377.391 296.83 378.622 295.277 379.263C293.725 379.904 291.982 379.903 290.43 379.26Z" fill="#6C63FF"/>
<path id="Vector_31" d="M278.42 408.16L237.59 391.16C236.041 390.512 234.812 389.278 234.171 387.726C233.53 386.174 233.53 384.432 234.17 382.88L235.17 380.59C235.818 379.039 237.054 377.808 238.608 377.166C240.162 376.525 241.907 376.527 243.46 377.17L284.28 394.17C285.831 394.816 287.062 396.05 287.703 397.603C288.344 399.155 288.343 400.898 287.7 402.45L286.7 404.74C286.054 406.291 284.82 407.522 283.267 408.163C281.715 408.804 279.972 408.803 278.42 408.16Z" fill="#6C63FF"/>
<path id="Vector_32" d="M306.78 338.64C306.17 338.639 305.565 338.52 305 338.29L263.87 321.66C263.29 321.427 262.762 321.082 262.316 320.644C261.87 320.207 261.515 319.686 261.271 319.111C261.026 318.536 260.898 317.918 260.893 317.293C260.887 316.669 261.005 316.049 261.24 315.47L264.41 307.64C264.883 306.471 265.8 305.538 266.961 305.045C268.122 304.552 269.43 304.539 270.6 305.01L311.73 321.64C312.897 322.115 313.829 323.033 314.322 324.193C314.814 325.352 314.828 326.66 314.36 327.83L311.19 335.67C310.833 336.547 310.223 337.298 309.437 337.826C308.652 338.355 307.727 338.639 306.78 338.64Z" fill="#CCCCCC"/>
<path id="Vector_33" d="M220.72 380.87C219.334 380.712 217.993 380.283 216.773 379.606C215.553 378.93 214.479 378.019 213.611 376.927C212.744 375.834 212.1 374.582 211.717 373.241C211.335 371.899 211.22 370.496 211.38 369.11C211.448 368.49 211.572 367.878 211.75 367.28L181.12 345.21L199.46 338.21L225.73 360.21C228.177 361.124 230.204 362.903 231.428 365.211C232.652 367.518 232.988 370.194 232.372 372.733C231.756 375.271 230.232 377.496 228.086 378.986C225.941 380.477 223.324 381.129 220.73 380.82L220.72 380.87Z" fill="#FFB8B8"/>
<path id="Vector_34" d="M204.69 364.79C203.787 364.79 202.896 364.578 202.09 364.17L171.03 348.63C160.183 343.197 151.676 334.011 147.09 322.78L132.35 286.66C129.926 283.098 129.002 278.725 129.777 274.486C130.551 270.248 132.963 266.485 136.49 264.01C138.25 262.772 140.238 261.896 142.34 261.434C144.441 260.972 146.613 260.934 148.73 261.32C150.872 261.706 152.916 262.513 154.744 263.694C156.572 264.875 158.147 266.406 159.38 268.2L185.73 324.2L211.58 346.05C212.489 346.824 213.139 347.859 213.441 349.014C213.744 350.169 213.684 351.39 213.27 352.51L210.14 360.97C209.726 362.082 208.982 363.041 208.008 363.718C207.034 364.396 205.876 364.759 204.69 364.76V364.79Z" fill="#6C63FF"/>
</g>
</g>
<defs>
<linearGradient id="paint0_linear" x1="-1.12415e-05" y1="276.2" x2="639.93" y2="276.2" gradientUnits="userSpaceOnUse">
<stop stop-color="#F7FCFF"/>
<stop offset="0.1" stop-color="#F2F5FF"/>
<stop offset="0.25" stop-color="#E3E2FE"/>
<stop offset="0.43" stop-color="#CAC2FC"/>
<stop offset="0.64" stop-color="#A895FA"/>
<stop offset="0.85" stop-color="#7D5DF8"/>
<stop offset="1" stop-color="#5C33F6"/>
</linearGradient>
<clipPath id="clip0">
<rect width="639.93" height="587.87" fill="white"/>
</clipPath>
</defs>
</svg>
